<?xml version="1.0" encoding="UTF-8"?>
<svg id="a" data-name="Capa 1" xmlns="http://www.w3.org/2000/svg" viewBox="0 0 20 18.94">
  <defs>
    <style>
      .b {
        fill: none;
        stroke: #000;
        stroke-miterlimit: 10;
      }

      .c {
        stroke-width: 0px;
      }
    </style>
  </defs>
  <g>
    <g>
      <path class="c" d="m13.26.63c-.42-.4-.96-.62-1.53-.62-.41,0-.82.12-1.18.34l-6.1,3.82h-2.23C1.01,4.18.02,5.17.02,6.39v5.32c0,1.22.99,2.22,2.22,2.22h2.21l6.11,3.83c.35.22.76.34,1.18.34.57,0,1.12-.22,1.53-.62.21-.2.38-.44.5-.71.12-.28.19-.58.19-.89v-6.82h0V2.24c0-.31-.06-.61-.19-.89-.12-.27-.28-.51-.5-.71Zm-.96,8.42h0v6.83c0,.34-.28.58-.58.58-.1,0-.21-.03-.3-.09l-6.17-3.87c-.22-.14-.47-.21-.73-.21h-2.29c-.32,0-.57-.26-.57-.57v-5.32c0-.32.26-.57.57-.57h2.3c.26,0,.51-.07.73-.21l6.16-3.86c.1-.06.2-.09.3-.09.3,0,.58.24.58.58v6.82h0Z"/>
      <path class="c" d="m11.73,18.12c-.42,0-.83-.12-1.19-.34l-6.1-3.83h-2.21c-1.23,0-2.23-1-2.23-2.23v-5.32c0-1.23,1-2.23,2.23-2.23h2.22L10.55.34c.36-.22.77-.34,1.19-.34.58,0,1.13.22,1.55.62.21.2.38.45.5.72.12.28.19.59.19.9v13.65c0,.31-.06.62-.19.9-.12.27-.29.51-.5.72-.42.4-.97.62-1.55.62ZM2.23,4.2C1.02,4.2.04,5.18.04,6.39v5.32c0,1.21.99,2.2,2.2,2.2h2.22s6.11,3.83,6.11,3.83c.35.22.75.34,1.17.34.57,0,1.11-.22,1.52-.61.21-.2.38-.44.49-.7.12-.28.18-.58.18-.88V2.24c0-.31-.06-.6-.18-.88-.12-.27-.28-.5-.49-.7-.41-.39-.95-.61-1.52-.61-.41,0-.81.12-1.17.34l-6.1,3.82h-2.23Zm9.5,12.28c-.11,0-.22-.03-.31-.09l-6.17-3.87c-.22-.14-.47-.21-.72-.21h-2.29c-.33,0-.59-.27-.59-.59v-5.32c0-.33.27-.59.59-.59h2.3c.26,0,.51-.07.72-.21l6.16-3.86c.1-.06.2-.09.31-.09.33,0,.6.27.6.6v13.65c0,.33-.27.6-.6.6ZM2.23,5.84c-.31,0-.56.25-.56.56v5.32c0,.31.25.56.56.56h2.29c.26,0,.52.07.74.21l6.17,3.87c.09.06.19.09.29.09.31,0,.56-.25.56-.56V2.24c0-.31-.25-.56-.56-.56-.1,0-.2.03-.29.09l-6.16,3.86c-.22.14-.48.21-.74.21h-2.3Z"/>
    </g>
    <g>
      <path class="c" d="m16.25,5.05c-.2-.41-.69-.57-1.1-.37-.41.2-.57.69-.37,1.1.48.96.73,2.09.73,3.28s-.26,2.35-.75,3.32c-.2.4-.04.9.36,1.1.12.06.25.09.37.09.3,0,.59-.16.73-.45.61-1.19.93-2.6.93-4.06,0-1.44-.31-2.83-.9-4.01Z"/>
      <path class="c" d="m15.49,13.59c-.13,0-.26-.03-.38-.09-.41-.21-.58-.72-.37-1.13.49-.96.75-2.11.75-3.31s-.25-2.32-.73-3.27c-.1-.2-.12-.43-.04-.64.07-.21.22-.38.42-.48.12-.06.24-.09.37-.09.32,0,.61.18.75.47.59,1.19.9,2.58.9,4.02,0,1.47-.32,2.87-.93,4.07-.14.28-.43.46-.75.46Zm.02-8.98c-.12,0-.24.03-.36.08-.19.1-.33.26-.4.46-.07.2-.05.42.04.61.48.96.73,2.1.73,3.29s-.26,2.36-.75,3.33c-.2.39-.04.88.35,1.08.11.06.24.09.36.09.3,0,.58-.17.72-.44.6-1.19.92-2.59.92-4.05,0-1.44-.31-2.82-.9-4-.14-.27-.41-.44-.72-.44Z"/>
    </g>
    <g>
      <path class="c" d="m17.48,2.44c-.41.2-.57.69-.37,1.1.8,1.61,1.23,3.52,1.23,5.51s-.44,3.95-1.26,5.58c-.2.4-.04.9.36,1.1.12.06.25.09.37.09.3,0,.59-.16.73-.45.94-1.86,1.44-4.04,1.44-6.32s-.48-4.4-1.4-6.24c-.2-.41-.69-.57-1.1-.37Z"/>
      <path class="c" d="m17.81,15.84c-.13,0-.26-.03-.38-.09-.2-.1-.35-.27-.42-.49s-.05-.44.05-.64c.82-1.62,1.26-3.55,1.26-5.57s-.42-3.89-1.22-5.5c-.21-.41-.04-.92.38-1.13.12-.06.24-.09.37-.09.32,0,.61.18.75.47.92,1.84,1.4,4,1.4,6.25s-.5,4.47-1.44,6.33c-.14.28-.43.46-.75.46Zm.04-13.47c-.12,0-.24.03-.36.08-.19.1-.33.26-.4.46s-.05.42.04.61c.8,1.62,1.23,3.52,1.23,5.52s-.44,3.96-1.26,5.59c-.1.19-.11.41-.05.61s.21.37.4.47c.11.06.24.09.36.09.3,0,.58-.17.72-.44.94-1.85,1.44-4.04,1.44-6.31s-.48-4.4-1.39-6.23c-.14-.27-.41-.44-.72-.44Z"/>
    </g>
  </g>
  <line class="b" x1="1.21" y1=".78" x2="19.09" y2="18.59"/>
</svg>